# xmcd
#
# Track frame offsets: 
#        150
#        17755
#        35891
#        43294
#        64805
#        82264
#        93860
#        117016
#        123003
#        144238
#        153218
#        187019
#        211152
#        237618
#        254111
#        288284
#        291351
#        307362
#
# Disc length: 4501 seconds
#
# Revision: 2
# Processed by: cddbd v1.5.2PL0 Copyright (c) Steve Scherf et al.
# Submitted via: ExactAudioCopy v1.3
#
DISCID=15119312
DTITLE=Bill Evans - 7 Classic Albums - New Jazz Conceptions
DYEAR=1956
DGENRE=Jazz
TTITLE0=I Love You
TTITLE1=Five
TTITLE2=I Got It Bad (And That Ain't Good)
TTITLE3=Conception
TTITLE4=Easy Living
TTITLE5=Displacement
TTITLE6=Speak Low
TTITLE7=Waltz For Debby
TTITLE8=Our Delight
TTITLE9=My Romance
TTITLE10=No Cover, No Minimum
TTITLE11=Minority
TTITLE12=Young And Foolish
TTITLE13=Lucky To Be Me
TTITLE14=Night And Day
TTITLE15=Epilogue
TTITLE16=Tenderly
TTITLE17=Peace Piece
EXTD=
EXTT0=
EXTT1=
EXTT2=
EXTT3=
EXTT4=
EXTT5=
EXTT6=
EXTT7=
EXTT8=
EXTT9=
EXTT10=
EXTT11=
EXTT12=
EXTT13=
EXTT14=
EXTT15=
EXTT16=
EXTT17=
PLAYORDER=
